<?xml version="1.0" standalone="no"?>
<!DOCTYPE svg PUBLIC "-//W3C//DTD SVG 20010904//EN"
 "http://www.w3.org/TR/2001/REC-SVG-20010904/DTD/svg10.dtd">
<svg version="1.0" xmlns="http://www.w3.org/2000/svg"
 width="16.000000pt" height="16.000000pt" viewBox="0 0 16.000000 16.000000"
 preserveAspectRatio="xMidYMid meet">
<metadata>
Created by potrace 1.11, written by Peter Selinger 2001-2013
</metadata>
<g transform="translate(0.000000,16.000000) scale(0.001600,-0.001600)"
fill="#000000" stroke="none">
<path d="M2141 8854 c-71 -19 -137 -56 -190 -105 -46 -44 -124 -157 -116 -170
3 -4 1 -10 -4 -13 -29 -18 -37 -228 -13 -311 46 -154 189 -286 343 -315 32 -6
495 -10 1200 -10 l1149 0 0 -3188 c0 -3461 -4 -3234 54 -3347 55 -109 175
-210 289 -243 66 -19 215 -21 289 -4 144 33 292 171 348 327 13 35 15 467 18
3248 l2 3207 1143 1 c628 1 1154 3 1168 4 14 2 50 12 80 23 227 80 352 314
294 551 -42 172 -186 314 -356 350 -35 8 -879 11 -2847 10 -2411 0 -2804 -2
-2851 -15z"/>
</g>
</svg>
